<!DOCTYPE svg PUBLIC "-//W3C//DTD SVG 1.1//EN" "http://www.w3.org/Graphics/SVG/1.1/DTD/svg11.dtd">
<!-- Uploaded to: SVG Repo, www.svgrepo.com, Transformed by: SVG Repo Mixer Tools -->
<svg width="800px" height="800px" viewBox="0 0 48 48" enable-background="new 0 0 48 48" id="Layer_3" version="1.1" xml:space="preserve" xmlns="http://www.w3.org/2000/svg" xmlns:xlink="http://www.w3.org/1999/xlink" fill="#000000">
<g id="SVGRepo_bgCarrier" stroke-width="0"/>
<g id="SVGRepo_tracerCarrier" stroke-linecap="round" stroke-linejoin="round"/>
<g id="SVGRepo_iconCarrier">
<path d="M32.615,10.883V8.615C32.615,3.857,28.759,0,24,0c-4.758,0-8.615,3.857-8.615,8.615v2.268H12.33V28h23.34 V10.883H32.615z M26.432,22.715h-4.734l1.175-2.963c-0.831-0.415-1.406-1.265-1.406-2.257c0-1.4,1.134-2.535,2.534-2.535 c1.4,0,2.533,1.135,2.533,2.535c0,0.98-0.561,1.82-1.375,2.243L26.432,22.715z M19.012,10.883V8.615 c0-2.754,2.233-4.988,4.988-4.988c2.754,0,4.988,2.233,4.988,4.988v2.268H19.012z" fill="#3b76c4"/>
<path d="M0,32v16h48V32H0z M44,44H4v-8h40V44z" fill="#3b76c4"/>
<rect fill="#3b76c4" height="3" width="6" x="11" y="38.5"/>
<rect fill="#3b76c4" height="3" width="6" x="21" y="38.5"/>
<rect fill="#3b76c4" height="3" width="6" x="31" y="38.5"/>
</g>
</svg>